<svg width="21" height="22" xmlns="http://www.w3.org/2000/svg"><path d="M0 6.5h21v-2H0v2zm4.992 0c.004 0 .008-.005.008 0v13h-.008 11.016c-.004 0-.008.005-.008 0v-13h.008H4.992zM18 6.5v13c0 1.11-.892 2-1.992 2H4.992c-1.1 0-1.992-.895-1.992-2v-13h15zM7.265 3.03l-.46 1.47h7.44l-.51-1.47c-.077-.23-.492-.53-.732-.53H7.997c-.243 0-.654.297-.732.53zM13.003.5c1.1 0 2.28.85 2.63 1.898 0 0 .468 1.405.702 2.102.01.037-11.678.028-11.666 0 .01-.045.694-2.102.694-2.102C5.714 1.348 6.894.5 7.994.5h5.01zM7 8.5v9h2v-9H7zm5 0v9h2v-9h-2z" fill="#fff" fill-rule="evenodd"/></svg>